<svg width="56" height="56" viewBox="0 0 56 56" fill="none" xmlns="http://www.w3.org/2000/svg">
<path d="M33.7551 22.2449C32.3075 20.7972 30.3828 20 28.3355 20C26.2883 20 24.3635 20.7972 22.9159 22.2449C21.4682 23.6925 20.671 25.6172 20.671 27.6645C20.671 28.9613 20.9993 30.2357 21.6224 31.3645L20 36L24.6354 34.3776C25.7643 35.0007 27.0387 35.329 28.3355 35.329C30.3827 35.329 32.3075 34.5317 33.7551 33.0841C35.2028 31.6365 36 29.7118 36 27.6645C36 25.6172 35.2028 23.6925 33.7551 22.2449ZM32.1245 30.5117L31.2397 31.3966C30.5067 32.1296 28.4268 31.2382 26.5943 29.4057C24.7618 27.5731 23.8704 25.4933 24.6034 24.7603L25.4882 23.8755C25.6715 23.6923 25.9686 23.6923 26.1519 23.8755L27.2579 24.9815C27.4412 25.1648 27.4412 25.4619 27.2579 25.6452L26.5943 26.3088C27.238 27.6677 28.3322 28.762 29.6912 29.4057L30.3548 28.7421C30.5381 28.5588 30.8352 28.5588 31.0185 28.7421L32.1245 29.8481C32.3078 30.0314 32.3078 30.3285 32.1245 30.5117Z" fill="white"/>
<circle cx="28" cy="28" r="27.3" stroke="white" stroke-opacity="0.48" stroke-width="1.4"/>
</svg>
