<svg width="56" height="56" viewBox="0 0 56 56" fill="none" xmlns="http://www.w3.org/2000/svg">
<g clip-path="url(#clip0)">
<path d="M35.9906 24.7036C35.9531 23.8534 35.8156 23.2689 35.6186 22.7625C35.4154 22.2249 35.1028 21.7436 34.6932 21.3435C34.293 20.9372 33.8085 20.6215 33.277 20.4215C32.7675 20.2245 32.186 20.0871 31.3357 20.0496C30.479 20.0089 30.2071 19.9995 28.0344 19.9995C25.8616 19.9995 25.5897 20.0089 24.7362 20.0464C23.8859 20.0839 23.3013 20.2215 22.7949 20.4183C22.2571 20.6215 21.7757 20.934 21.3755 21.3435C20.9691 21.7436 20.6534 22.2281 20.4533 22.7595C20.2563 23.2689 20.1188 23.8502 20.0813 24.7004C20.0407 25.5569 20.0312 25.8288 20.0312 28.0011C20.0312 30.1734 20.0407 30.4453 20.0781 31.2986C20.1156 32.1487 20.2533 32.7332 20.4502 33.2396C20.6534 33.7772 20.9691 34.2585 21.3755 34.6586C21.7757 35.065 22.2603 35.3807 22.7917 35.5807C23.3013 35.7776 23.8827 35.9151 24.7332 35.9526C25.5865 35.9902 25.8586 35.9995 28.0313 35.9995C30.204 35.9995 30.476 35.9902 31.3295 35.9526C32.1798 35.9151 32.7644 35.7776 33.2708 35.5807C34.3463 35.165 35.1966 34.3148 35.6124 33.2396C35.8092 32.7301 35.9469 32.1487 35.9844 31.2986C36.0218 30.4453 36.0312 30.1734 36.0312 28.0011C36.0312 25.8288 36.0281 25.5569 35.9906 24.7036ZM34.5495 31.2361C34.515 32.0175 34.3838 32.4394 34.2743 32.7207C34.0054 33.4178 33.4521 33.971 32.7549 34.2398C32.4736 34.3492 32.0485 34.4805 31.27 34.5148C30.4259 34.5524 30.1728 34.5617 28.0375 34.5617C25.9023 34.5617 25.646 34.5524 24.805 34.5148C24.0234 34.4805 23.6014 34.3492 23.32 34.2398C22.9731 34.1116 22.6573 33.9085 22.4009 33.6428C22.1352 33.3834 21.932 33.0708 21.8038 32.7239C21.6944 32.4426 21.5631 32.0175 21.5288 31.2393C21.4912 30.3953 21.4819 30.1421 21.4819 28.0073C21.4819 25.8725 21.4912 25.6162 21.5288 24.7755C21.5631 23.9941 21.6944 23.5721 21.8038 23.2908C21.932 22.9438 22.1352 22.6282 22.4041 22.3718C22.6635 22.1061 22.9761 21.903 23.3232 21.7749C23.6045 21.6655 24.0298 21.5342 24.8081 21.4998C25.6522 21.4623 25.9055 21.4529 28.0406 21.4529C30.179 21.4529 30.4321 21.4623 31.2732 21.4998C32.0547 21.5342 32.4768 21.6655 32.7581 21.7749C33.1051 21.903 33.4209 22.1061 33.6772 22.3718C33.9429 22.6313 34.1461 22.9438 34.2743 23.2908C34.3838 23.5721 34.515 23.9971 34.5495 24.7755C34.587 25.6194 34.5964 25.8725 34.5964 28.0073C34.5964 30.1421 34.587 30.3922 34.5495 31.2361Z" fill="white"/>
<path d="M28.0344 23.8911C25.7649 23.8911 23.9235 25.732 23.9235 28.0013C23.9235 30.2705 25.7649 32.1115 28.0344 32.1115C30.3041 32.1115 32.1454 30.2705 32.1454 28.0013C32.1454 25.732 30.3041 23.8911 28.0344 23.8911ZM28.0344 30.6675C26.5621 30.6675 25.3677 29.4735 25.3677 28.0013C25.3677 26.5291 26.5621 25.3351 28.0344 25.3351C29.5069 25.3351 30.7011 26.5291 30.7011 28.0013C30.7011 29.4735 29.5069 30.6675 28.0344 30.6675Z" fill="white"/>
<path d="M33.2688 23.7286C33.2688 24.2585 32.8391 24.6881 32.309 24.6881C31.779 24.6881 31.3492 24.2585 31.3492 23.7286C31.3492 23.1986 31.779 22.769 32.309 22.769C32.8391 22.769 33.2688 23.1986 33.2688 23.7286Z" fill="white"/>
</g>
<circle cx="28" cy="28" r="27.3" stroke="white" stroke-opacity="0.48" stroke-width="1.4"/>
<defs>
<clipPath id="clip0">
<rect width="16" height="16" fill="white" transform="translate(20 20)"/>
</clipPath>
</defs>
</svg>
