<svg width="56" height="56" viewBox="0 0 56 56" fill="none" xmlns="http://www.w3.org/2000/svg">
<path d="M35.1831 24.2508C35.0102 23.6082 34.5036 23.1016 33.8611 22.9286C32.6873 22.6074 27.992 22.6074 27.992 22.6074C27.992 22.6074 23.2969 22.6074 22.1231 22.9164C21.493 23.0893 20.9739 23.6083 20.8011 24.2508C20.4922 25.4245 20.4922 27.8586 20.4922 27.8586C20.4922 27.8586 20.4922 30.305 20.8011 31.4664C20.9741 32.1089 21.4806 32.6155 22.1232 32.7885C23.3093 33.1098 27.9922 33.1098 27.9922 33.1098C27.9922 33.1098 32.6873 33.1098 33.8611 32.8008C34.5037 32.6279 35.0102 32.1213 35.1833 31.4788C35.4921 30.305 35.4921 27.871 35.4921 27.871C35.4921 27.871 35.5045 25.4245 35.1831 24.2508ZM26.4971 30.1073V25.6099L30.4015 27.8586L26.4971 30.1073Z" fill="white"/>
<circle cx="28" cy="28" r="27.3" stroke="white" stroke-opacity="0.48" stroke-width="1.4"/>
</svg>
