<svg width="16" height="16" viewBox="0 0 16 16" fill="none" xmlns="http://www.w3.org/2000/svg">
<circle cx="8" cy="8" r="7.4" stroke="#11507D" stroke-width="1.2"/>
<g clip-path="url(#clip0)">
<path d="M8 12.0005C9.98028 12.0005 11.7298 10.5049 11.9979 8.5427C12.0125 8.43421 11.9505 8.33029 11.8484 8.29162C11.7459 8.25293 11.6305 8.29001 11.5703 8.38134C11.0464 9.17007 10.116 9.6411 9.17188 9.6411C7.62097 9.6411 6.35938 8.37951 6.35938 6.8286C6.35938 5.88446 6.83041 4.95381 7.61912 4.4299C7.71023 4.36948 7.74753 4.25412 7.70886 4.15181C7.67017 4.04973 7.56581 3.98884 7.45778 4.00236C5.49558 4.27037 4 6.0202 4 8.00048C4 10.1975 5.80297 12.0005 8 12.0005Z" fill="#11507D"/>
</g>
<defs>
<clipPath id="clip0">
<rect width="8" height="8" fill="white" transform="translate(4 4)"/>
</clipPath>
</defs>
</svg>
