<svg width="14" height="17" viewBox="0 0 14 17" fill="none" xmlns="http://www.w3.org/2000/svg">
<path d="M7.03559 0C3.54437 0 0.703857 2.73531 0.703857 6.09722C0.703857 7.42767 1.14026 8.69182 1.96696 9.75243L6.64529 15.82C6.65698 15.8347 6.67484 15.8403 6.68783 15.8534C6.92162 16.0945 7.25898 16.0338 7.42556 15.82C8.77276 14.089 11.2421 10.8562 12.1916 9.63674C12.1916 9.63674 12.1919 9.6358 12.1922 9.63517L12.1981 9.62767C12.9631 8.59271 13.3673 7.37201 13.3673 6.09722C13.3673 2.73531 10.5268 0 7.03559 0ZM7.03559 9.3866C5.15588 9.3866 3.6197 7.90732 3.6197 6.09722C3.6197 4.28713 5.15588 2.80785 7.03559 2.80785C8.9153 2.80785 10.4515 4.28713 10.4515 6.09722C10.4515 7.90732 8.9153 9.3866 7.03559 9.3866Z" fill="white"/>
</svg>
