<svg width="80" height="86" viewBox="0 0 80 86" fill="none" xmlns="http://www.w3.org/2000/svg">
<path d="M45.6086 79.6099C65.0446 76.8827 80 60.1879 80 40C80 17.9086 62.0914 0 40 0C17.9086 0 0 17.9086 0 40C0 60.4376 15.3276 77.2952 35.1146 79.7047L40.144 85.0115C40.3043 85.1807 40.5747 85.1775 40.7311 85.0046L45.6086 79.6099Z" fill="#52AE9E"/>
<path d="M38.7333 45.8667H39.4333V45.8131L39.4252 45.7602L38.7333 45.8667ZM41.2667 45.8667L40.5936 45.6744L40.5667 45.7686V45.8667H41.2667ZM39.3 43.9667C39.3 44.3533 39.6134 44.6667 40 44.6667C40.3866 44.6667 40.7 44.3533 40.7 43.9667H39.3ZM31.4798 42.7199L31.8681 42.1374L31.4798 42.7199ZM34.1095 52.7222L33.7568 53.3269L34.1095 52.7222ZM26.7628 48.4367L27.1156 47.832L26.7628 48.4367ZM58.9385 37.0369L59.2986 37.6371L58.9385 37.0369ZM46.717 52.6031L47.0772 53.2034L46.717 52.6031ZM58.8082 45.3484L59.1683 45.9487L58.8082 45.3484ZM58.9362 50.9698L59.2835 51.5776L58.9362 50.9698ZM41.4562 60.9584L41.1089 60.3506L41.4562 60.9584ZM58.8288 30.7386L58.5559 30.094L58.8288 30.7386ZM21.0661 50.9711L21.4134 50.3634L21.0661 50.9711ZM21.0024 50.8572L20.3027 50.8353L21.0024 50.8572ZM38.5438 60.9584L38.1965 61.5662L38.5438 60.9584ZM21.801 30.741L22.0862 30.1017L21.801 30.741ZM26.1335 24.3642L26.4268 23.7286L26.1335 24.3642ZM26.0068 24.3761L25.5999 23.8065L26.0068 24.3761ZM29.3905 22.9881L29.7036 23.6142L29.3905 22.9881ZM29.3576 23.1909L28.8626 23.6859L29.3576 23.1909ZM33.0831 21.1833L32.8617 21.8473L33.0831 21.1833ZM32.9864 21.1901L33.2995 21.8162L32.9864 21.1901ZM40.1595 23.2854L39.6986 23.8122L40.1595 23.2854ZM40.0361 23.5009L40.2574 22.8368L40.0361 23.5009ZM35.7586 19.1899L35.4987 18.5399L35.7586 19.1899ZM35.7223 19.4028L36.1832 18.876L35.7223 19.4028ZM38.7831 18.0233L39.0802 17.3895L38.7831 18.0233ZM38.6823 18.0204L38.4223 17.3705L38.6823 18.0204ZM50.7149 31.2778L50.9906 30.6344L50.7149 31.2778ZM50.8178 31.2764L51.1112 31.912L50.8178 31.2764ZM42.4691 28.0122L42.9373 27.4919L42.4691 28.0122ZM42.6037 27.8016L42.328 28.445L42.6037 27.8016ZM26.8969 39.6646L26.5086 40.2471L26.8969 39.6646ZM48.0952 33.287L47.7188 32.6968L48.0952 33.287ZM48.1075 33.0867L47.6392 33.607L48.1075 33.0867ZM58.7527 27.6141L59.0461 28.2497L58.7527 27.6141ZM58.7534 27.3844L58.4563 28.0182L58.7534 27.3844ZM33.7978 27.6311L33.3028 28.1261L33.7978 27.6311ZM33.6552 27.8357L33.9485 27.2001L33.6552 27.8357ZM21.8218 27.5912L22.1272 26.9613L21.8218 27.5912ZM21.8072 27.3758L21.4004 26.8062L21.8072 27.3758ZM21.5164 28.221C24.5965 29.7146 29.0986 32.0608 32.8217 34.7232C34.6846 36.0553 36.3255 37.4478 37.494 38.832C38.6728 40.2285 39.3 41.5326 39.3 42.7H40.7C40.7 41.0464 39.8275 39.426 38.5638 37.9289C37.2897 36.4196 35.5451 34.9495 33.636 33.5844C29.8153 30.8522 25.2283 28.465 22.1272 26.9613L21.5164 28.221ZM40.7 42.7C40.7 41.8706 41.0594 40.95 41.6973 39.9852C42.3301 39.0279 43.1979 38.0861 44.1201 37.2291C45.9637 35.5157 47.9465 34.2121 48.4716 33.8772L47.7188 32.6968C47.1663 33.0492 45.1016 34.4056 43.167 36.2036C42.2 37.1023 41.246 38.1291 40.5294 39.2131C39.8178 40.2896 39.3 41.4829 39.3 42.7H40.7ZM48.5757 32.5664L42.9373 27.4919L42.0008 28.5325L47.6392 33.607L48.5757 32.5664ZM42.328 28.445L50.4391 31.9212L50.9906 30.6344L42.8794 27.1582L42.328 28.445ZM51.1112 31.912L59.0461 28.2497L58.4594 26.9785L50.5245 30.6408L51.1112 31.912ZM59.0505 26.7506L39.0802 17.3895L38.486 18.6572L58.4563 28.0182L59.0505 26.7506ZM38.4223 17.3705L35.4987 18.5399L36.0186 19.8398L38.9423 18.6703L38.4223 17.3705ZM35.2613 19.9296L39.6986 23.8122L40.6205 22.7586L36.1832 18.876L35.2613 19.9296ZM40.2574 22.8368L33.3045 20.5192L32.8617 21.8473L39.8147 24.165L40.2574 22.8368ZM32.6734 20.564L29.0775 22.362L29.7036 23.6142L33.2995 21.8162L32.6734 20.564ZM28.8626 23.6859L33.3028 28.1261L34.2928 27.1362L29.8526 22.696L28.8626 23.6859ZM33.9485 27.2001L26.4268 23.7286L25.8401 24.9997L33.3618 28.4713L33.9485 27.2001ZM25.5999 23.8065L21.4004 26.8062L22.2141 27.9454L26.4136 24.9457L25.5999 23.8065ZM21.5159 31.3803C24.1452 32.553 28.0763 34.678 31.4629 37.3052C33.1556 38.6183 34.6947 40.0435 35.8662 41.5229C37.0406 43.006 37.8158 44.5061 38.0415 45.9731L39.4252 45.7602C39.1495 43.9684 38.2244 42.2459 36.9637 40.6538C35.7 39.0579 34.0691 37.5552 32.3211 36.199C28.8261 33.4878 24.7924 31.3087 22.0862 30.1017L21.5159 31.3803ZM38.0333 45.8667V60.8484H39.4333V45.8667H38.0333ZM38.8911 60.3506L21.4134 50.3634L20.7188 51.5789L38.1965 61.5662L38.8911 60.3506ZM21.702 50.8791L22.3271 30.8761L20.9278 30.8324L20.3027 50.8353L21.702 50.8791ZM58.5559 30.094C55.9476 31.1984 52.0063 33.2538 48.4541 35.9278C44.9262 38.5834 41.6609 41.9389 40.5936 45.6744L41.9397 46.059C42.8766 42.7801 45.8268 39.6578 49.2961 37.0463C52.7411 34.453 56.5788 32.4515 59.1018 31.3832L58.5559 30.094ZM40.5667 45.8667V60.8484H41.9667V45.8667H40.5667ZM41.8035 61.5662L59.2835 51.5776L58.5889 50.362L41.1089 60.3506L41.8035 61.5662ZM59.7 50.8598V45.4571H58.3V50.8598H59.7ZM58.448 44.7482L46.3569 52.0029L47.0772 53.2034L59.1683 45.9487L58.448 44.7482ZM47.0333 52.3859V48.1859H45.6333V52.3859H47.0333ZM49.7683 43.3553L59.2986 37.6371L58.5784 36.4367L49.048 42.1548L49.7683 43.3553ZM59.7 36.9283V30.8567H58.3V36.9283H59.7ZM26 39.77V48.3273H27.4V39.77H26ZM26.4101 49.0413L33.7568 53.3269L34.4622 52.1176L27.1156 47.832L26.4101 49.0413ZM35 52.6128V47.9895H33.6V52.6128H35ZM31.8681 42.1374L27.2852 39.0822L26.5086 40.2471L31.0915 43.3023L31.8681 42.1374ZM39.3 42.7V43.9667H40.7V42.7H39.3ZM35 47.9895C35 45.6379 33.8247 43.4419 31.8681 42.1374L31.0915 43.3023C32.6587 44.3471 33.6 46.106 33.6 47.9895H35ZM33.7568 53.3269C34.3079 53.6483 35 53.2508 35 52.6128H33.6C33.6 52.1703 34.08 51.8946 34.4622 52.1176L33.7568 53.3269ZM26 48.3273C26 48.6213 26.1562 48.8932 26.4101 49.0413L27.1156 47.832C27.2917 47.9348 27.4 48.1233 27.4 48.3273H26ZM59.2986 37.6371C59.5476 37.4877 59.7 37.2187 59.7 36.9283H58.3C58.3 36.7269 58.4057 36.5403 58.5784 36.4367L59.2986 37.6371ZM46.3569 52.0029C46.6546 51.8243 47.0333 52.0387 47.0333 52.3859H45.6333C45.6333 53.1269 46.4417 53.5846 47.0772 53.2034L46.3569 52.0029ZM59.7 45.4571C59.7 44.8145 58.999 44.4176 58.448 44.7482L59.1683 45.9487C58.7862 46.178 58.3 45.9027 58.3 45.4571H59.7ZM59.2835 51.5776C59.541 51.4304 59.7 51.1565 59.7 50.8598H58.3C58.3 50.6541 58.4102 50.4641 58.5889 50.362L59.2835 51.5776ZM40.5667 60.8484C40.5667 61.4831 41.2524 61.8811 41.8035 61.5662L41.1089 60.3506C41.4911 60.1322 41.9667 60.4082 41.9667 60.8484H40.5667ZM59.1018 31.3832C58.6853 31.5595 58.3 31.2254 58.3 30.8567H59.7C59.7 30.3071 59.1388 29.8472 58.5559 30.094L59.1018 31.3832ZM21.4134 50.3634C21.5976 50.4686 21.7087 50.667 21.702 50.8791L20.3027 50.8353C20.2932 51.1411 20.4532 51.4271 20.7188 51.5789L21.4134 50.3634ZM38.0333 60.8484C38.0333 60.4082 38.5089 60.1322 38.8911 60.3506L38.1965 61.5662C38.7476 61.8811 39.4333 61.4831 39.4333 60.8484H38.0333ZM22.0862 30.1017C21.5136 29.8463 20.9449 30.2856 20.9278 30.8324L22.3271 30.8761C22.3157 31.2434 21.9246 31.5625 21.5159 31.3803L22.0862 30.1017ZM26.4268 23.7286C26.1572 23.6042 25.8416 23.6339 25.5999 23.8065L26.4136 24.9457C26.2461 25.0654 26.0271 25.0861 25.8401 24.9997L26.4268 23.7286ZM29.0775 22.362C28.5728 22.6143 28.4636 23.2869 28.8626 23.6859L29.8526 22.696C30.1293 22.9727 30.0536 23.4392 29.7036 23.6142L29.0775 22.362ZM33.3045 20.5192C33.0965 20.4498 32.8695 20.466 32.6734 20.564L33.2995 21.8162C33.1635 21.8842 33.006 21.8954 32.8617 21.8473L33.3045 20.5192ZM39.6986 23.8122C39.2275 23.4 39.6636 22.6389 40.2574 22.8368L39.8147 24.165C40.6709 24.4504 41.2997 23.3529 40.6205 22.7586L39.6986 23.8122ZM35.4987 18.5399C34.9255 18.7692 34.7967 19.5231 35.2613 19.9296L36.1832 18.876C36.5054 19.158 36.4161 19.6808 36.0186 19.8398L35.4987 18.5399ZM39.0802 17.3895C38.873 17.2924 38.6348 17.2855 38.4223 17.3705L38.9423 18.6703C38.7949 18.7293 38.6297 18.7245 38.486 18.6572L39.0802 17.3895ZM50.4391 31.9212C50.6543 32.0134 50.8986 32.0101 51.1112 31.912L50.5245 30.6408C50.672 30.5728 50.8413 30.5704 50.9906 30.6344L50.4391 31.9212ZM42.9373 27.4919C43.4193 27.9256 42.9239 28.7004 42.328 28.445L42.8794 27.1582C42.0202 26.7899 41.3059 27.9071 42.0008 28.5325L42.9373 27.4919ZM27.4 39.77C27.4 40.2279 26.8896 40.5011 26.5086 40.2471L27.2852 39.0822C26.7359 38.7159 26 39.1098 26 39.77H27.4ZM48.4716 33.8772C48.9698 33.5594 48.9494 32.9027 48.5757 32.5664L47.6392 33.607C47.3913 33.3839 47.3632 32.9236 47.7188 32.6968L48.4716 33.8772ZM59.0461 28.2497C59.6843 27.9551 59.687 27.0489 59.0505 26.7506L58.4563 28.0182C58.0149 27.8113 58.0168 27.1828 58.4594 26.9785L59.0461 28.2497ZM33.3028 28.1261C32.8502 27.6735 33.3672 26.9319 33.9485 27.2001L33.3618 28.4713C34.1999 28.8581 34.9455 27.7888 34.2928 27.1362L33.3028 28.1261ZM47.0333 48.1859C47.0333 46.2071 48.0716 44.3734 49.7683 43.3553L49.048 42.1548C46.9296 43.4259 45.6333 45.7153 45.6333 48.1859H47.0333ZM22.1272 26.9613C22.5547 27.1686 22.5351 27.7161 22.2141 27.9454L21.4004 26.8062C20.9228 27.1473 20.9157 27.9298 21.5164 28.221L22.1272 26.9613Z" fill="white"/>
</svg>
