<svg width="14" height="17" viewBox="0 0 14 17" fill="none" xmlns="http://www.w3.org/2000/svg">
<path d="M7.03565 0C3.54443 0 0.703918 2.73531 0.703918 6.09722C0.703918 7.42767 1.14032 8.69182 1.96702 9.75243L6.64535 15.82C6.65704 15.8347 6.6749 15.8403 6.68789 15.8534C6.92168 16.0945 7.25905 16.0338 7.42562 15.82C8.77282 14.089 11.2422 10.8562 12.1916 9.63674C12.1916 9.63674 12.192 9.6358 12.1923 9.63517L12.1981 9.62767C12.9631 8.59271 13.3674 7.37201 13.3674 6.09722C13.3674 2.73531 10.5269 0 7.03565 0ZM7.03565 9.3866C5.15594 9.3866 3.61976 7.90732 3.61976 6.09722C3.61976 4.28713 5.15594 2.80785 7.03565 2.80785C8.91536 2.80785 10.4515 4.28713 10.4515 6.09722C10.4515 7.90732 8.91536 9.3866 7.03565 9.3866Z" fill="#272727"/>
</svg>
