<svg width="80" height="88" viewBox="0 0 80 88" fill="none" xmlns="http://www.w3.org/2000/svg">
<circle cx="40" cy="40" r="40" fill="white"/>
<path d="M38.7333 45.8667H39.2333V45.8284L39.2275 45.7906L38.7333 45.8667ZM41.2667 45.8667L40.7859 45.7293L40.7667 45.7966V45.8667H41.2667ZM39.5 43.9667C39.5 44.2428 39.7239 44.4667 40 44.4667C40.2761 44.4667 40.5 44.2428 40.5 43.9667H39.5ZM31.4798 42.7199L31.7571 42.3038L31.4798 42.7199ZM34.1095 52.7222L33.8576 53.1541L34.1095 52.7222ZM26.7628 48.4367L27.0148 48.0048L26.7628 48.4367ZM58.9385 37.0369L59.1958 37.4656L58.9385 37.0369ZM46.717 52.6031L46.9743 53.0319L46.717 52.6031ZM58.8082 45.3484L59.0654 45.7772L58.8082 45.3484ZM58.9362 50.9698L59.1842 51.4039L58.9362 50.9698ZM41.4562 60.9584L41.2081 60.5243L41.4562 60.9584ZM58.8288 30.7386L58.6339 30.2782L58.8288 30.7386ZM21.0661 50.9711L21.3142 50.537L21.0661 50.9711ZM21.0024 50.8572L20.5026 50.8416L21.0024 50.8572ZM38.5438 60.9584L38.2958 61.3925L38.5438 60.9584ZM21.801 30.741L22.0047 30.2843L21.801 30.741ZM26.1335 24.3642L26.343 23.9102L26.1335 24.3642ZM26.0068 24.3761L25.7162 23.9692L26.0068 24.3761ZM29.3905 22.9881L29.6141 23.4353L29.3905 22.9881ZM29.3576 23.1909L29.004 23.5445L29.3576 23.1909ZM33.0831 21.1833L32.925 21.6576L33.0831 21.1833ZM32.9864 21.1901L33.21 21.6373L32.9864 21.1901ZM40.1595 23.2854L39.8303 23.6617L40.1595 23.2854ZM40.0361 23.5009L40.1942 23.0266L40.0361 23.5009ZM35.7586 19.1899L35.5729 18.7256L35.7586 19.1899ZM35.7223 19.4028L36.0515 19.0265L35.7223 19.4028ZM38.7831 18.0233L38.9953 17.5706L38.7831 18.0233ZM38.6823 18.0204L38.4966 17.5562L38.6823 18.0204ZM50.7149 31.2778L50.9118 30.8182L50.7149 31.2778ZM50.8178 31.2764L51.0274 31.7304L50.8178 31.2764ZM42.4691 28.0122L42.8036 27.6405L42.4691 28.0122ZM42.6037 27.8016L42.4067 28.2612L42.6037 27.8016ZM26.8969 39.6646L26.6196 40.0807L26.8969 39.6646ZM48.0952 33.287L47.8263 32.8655L48.0952 33.287ZM48.1075 33.0867L47.773 33.4584L48.1075 33.0867ZM58.7527 27.6141L58.9623 28.0681L58.7527 27.6141ZM58.7534 27.3844L58.5412 27.8371L58.7534 27.3844ZM33.7978 27.6311L33.4443 27.9847L33.7978 27.6311ZM33.6552 27.8357L33.8647 27.3817L33.6552 27.8357ZM21.8218 27.5912L22.0399 27.1413L21.8218 27.5912ZM21.8072 27.3758L21.5166 26.9689L21.8072 27.3758ZM21.6036 28.0411C24.6868 29.5361 29.201 31.8881 32.938 34.5605C34.8075 35.8973 36.4632 37.3009 37.6468 38.703C38.8378 40.1138 39.5 41.4631 39.5 42.7H40.5C40.5 41.1158 39.6626 39.5406 38.411 38.058C37.1519 36.5665 35.4221 35.1075 33.5197 33.7471C29.7129 31.0248 25.1381 28.6435 22.0399 27.1413L21.6036 28.0411ZM40.5 42.7C40.5 41.8152 40.8821 40.8557 41.5304 39.8749C42.1753 38.8995 43.0554 37.9456 43.9839 37.0826C45.8405 35.3571 47.8351 34.046 48.3641 33.7086L47.8263 32.8655C47.2777 33.2153 45.2247 34.5642 43.3031 36.3501C42.3426 37.2429 41.4009 38.2575 40.6962 39.3234C39.9951 40.3839 39.5 41.5383 39.5 42.7H40.5ZM48.4419 32.7151L42.8036 27.6405L42.1346 28.3838L47.773 33.4584L48.4419 32.7151ZM42.4067 28.2612L50.5179 31.7374L50.9118 30.8182L42.8007 27.342L42.4067 28.2612ZM51.0274 31.7304L58.9623 28.0681L58.5432 27.1601L50.6083 30.8224L51.0274 31.7304ZM58.9656 26.9317L38.9953 17.5706L38.5709 18.4761L58.5412 27.8371L58.9656 26.9317ZM38.4966 17.5562L35.5729 18.7256L35.9443 19.6541L38.868 18.4847L38.4966 17.5562ZM35.393 19.7791L39.8303 23.6617L40.4888 22.9091L36.0515 19.0265L35.393 19.7791ZM40.1942 23.0266L33.2412 20.7089L32.925 21.6576L39.8779 23.9753L40.1942 23.0266ZM32.7628 20.7429L29.1669 22.5409L29.6141 23.4353L33.21 21.6373L32.7628 20.7429ZM29.004 23.5445L33.4443 27.9847L34.1514 27.2776L29.7112 22.8374L29.004 23.5445ZM33.8647 27.3817L26.343 23.9102L25.924 24.8182L33.4456 28.2897L33.8647 27.3817ZM25.7162 23.9692L21.5166 26.9689L22.0979 27.7826L26.2974 24.783L25.7162 23.9692ZM21.5974 31.1976C24.2376 32.3752 28.1834 34.508 31.5855 37.1472C33.2861 38.4665 34.8383 39.9027 36.023 41.3987C37.2097 42.8974 38.0063 44.4293 38.2391 45.9427L39.2275 45.7906C38.959 44.0452 38.0553 42.3545 36.8069 40.7779C35.5564 39.1987 33.9386 37.707 32.1985 36.3571C28.719 33.6578 24.7 31.4865 22.0047 30.2843L21.5974 31.1976ZM38.2333 45.8667V60.8484H39.2333V45.8667H38.2333ZM38.7919 60.5243L21.3142 50.537L20.8181 51.4053L38.2958 61.3925L38.7919 60.5243ZM21.5021 50.8728L22.1272 30.8698L21.1277 30.8386L20.5026 50.8416L21.5021 50.8728ZM58.6339 30.2782C56.0378 31.3774 52.1113 33.4251 48.5744 36.0875C45.0548 38.7369 41.8346 42.059 40.7859 45.7293L41.7474 46.004C42.7029 42.6599 45.6981 39.5043 49.1758 36.8865C52.6361 34.2817 56.4886 32.2725 59.0238 31.199L58.6339 30.2782ZM40.7667 45.8667V60.8484H41.7667V45.8667H40.7667ZM41.7042 61.3925L59.1842 51.4039L58.6881 50.5357L41.2081 60.5243L41.7042 61.3925ZM59.5 50.8598V45.4571H58.5V50.8598H59.5ZM58.5509 44.9197L46.4598 52.1744L46.9743 53.0319L59.0654 45.7772L58.5509 44.9197ZM46.8333 52.3859V48.1859H45.8333V52.3859H46.8333ZM49.6654 43.1838L59.1958 37.4656L58.6813 36.6082L49.1509 42.3263L49.6654 43.1838ZM59.5 36.9283V30.8567H58.5V36.9283H59.5ZM26.2 39.77V48.3273H27.2V39.77H26.2ZM26.5109 48.8686L33.8576 53.1541L34.3614 52.2903L27.0148 48.0048L26.5109 48.8686ZM34.8 52.6128V47.9895H33.8V52.6128H34.8ZM31.7571 42.3038L27.1743 39.2486L26.6196 40.0807L31.2024 43.1359L31.7571 42.3038ZM39.5 42.7V43.9667H40.5V42.7H39.5ZM34.8 47.9895C34.8 45.7048 33.6581 43.5712 31.7571 42.3038L31.2024 43.1359C32.8252 44.2178 33.8 46.0391 33.8 47.9895H34.8ZM33.8576 53.1541C34.2753 53.3978 34.8 53.0965 34.8 52.6128H33.8C33.8 52.3247 34.1126 52.1451 34.3614 52.2903L33.8576 53.1541ZM26.2 48.3273C26.2 48.5501 26.3184 48.7562 26.5109 48.8686L27.0148 48.0048C27.1295 48.0717 27.2 48.1945 27.2 48.3273H26.2ZM59.1958 37.4656C59.3845 37.3524 59.5 37.1484 59.5 36.9283H58.5C58.5 36.7971 58.5688 36.6756 58.6813 36.6082L59.1958 37.4656ZM46.4598 52.1744C46.6242 52.0757 46.8333 52.1942 46.8333 52.3859H45.8333C45.8333 52.9715 46.4721 53.3332 46.9743 53.0319L46.4598 52.1744ZM59.5 45.4571C59.5 44.97 58.9686 44.6691 58.5509 44.9197L59.0654 45.7772C58.8166 45.9265 58.5 45.7472 58.5 45.4571H59.5ZM59.1842 51.4039C59.3795 51.2924 59.5 51.0847 59.5 50.8598H58.5C58.5 50.7259 58.5718 50.6022 58.6881 50.5357L59.1842 51.4039ZM40.7667 60.8484C40.7667 61.3296 41.2865 61.6312 41.7042 61.3925L41.2081 60.5243C41.457 60.382 41.7667 60.5618 41.7667 60.8484H40.7667ZM59.0238 31.199C58.7501 31.3149 58.5 31.0943 58.5 30.8567H59.5C59.5 30.4383 59.074 30.0918 58.6339 30.2782L59.0238 31.199ZM21.3142 50.537C21.4342 50.6056 21.5065 50.7347 21.5021 50.8728L20.5026 50.8416C20.4954 51.0734 20.6167 51.2902 20.8181 51.4053L21.3142 50.537ZM38.2333 60.8484C38.2333 60.5618 38.543 60.382 38.7919 60.5243L38.2958 61.3925C38.7135 61.6312 39.2333 61.3296 39.2333 60.8484H38.2333ZM22.0047 30.2843C21.5723 30.0915 21.1407 30.4224 21.1277 30.8386L22.1272 30.8698C22.1198 31.1066 21.8658 31.3174 21.5974 31.1976L22.0047 30.2843ZM26.343 23.9102C26.1386 23.8159 25.8993 23.8384 25.7162 23.9692L26.2974 24.783C26.1883 24.8609 26.0457 24.8744 25.924 24.8182L26.343 23.9102ZM29.1669 22.5409C28.7843 22.7322 28.7016 23.242 29.004 23.5445L29.7112 22.8374C29.8913 23.0176 29.842 23.3213 29.6141 23.4353L29.1669 22.5409ZM33.2412 20.7089C33.0835 20.6564 32.9115 20.6686 32.7628 20.7429L33.21 21.6373C33.1215 21.6816 33.0189 21.6889 32.925 21.6576L33.2412 20.7089ZM39.8303 23.6617C39.5235 23.3933 39.8075 22.8977 40.1942 23.0266L39.8779 23.9753C40.527 24.1916 41.0037 23.3597 40.4888 22.9091L39.8303 23.6617ZM35.5729 18.7256C35.1384 18.8995 35.0408 19.4709 35.393 19.7791L36.0515 19.0265C36.2613 19.2101 36.2032 19.5506 35.9443 19.6541L35.5729 18.7256ZM38.9953 17.5706C38.8382 17.497 38.6577 17.4917 38.4966 17.5562L38.868 18.4847C38.772 18.523 38.6645 18.5199 38.5709 18.4761L38.9953 17.5706ZM50.5179 31.7374C50.6811 31.8073 50.8662 31.8047 51.0274 31.7304L50.6083 30.8224C50.7043 30.7781 50.8146 30.7766 50.9118 30.8182L50.5179 31.7374ZM42.8036 27.6405C43.1174 27.9229 42.7948 28.4275 42.4067 28.2612L42.8007 27.342C42.1493 27.0629 41.6078 27.9097 42.1346 28.3838L42.8036 27.6405ZM27.2 39.77C27.2 40.0682 26.8677 40.246 26.6196 40.0807L27.1743 39.2486C26.7578 38.971 26.2 39.2695 26.2 39.77H27.2ZM48.3641 33.7086C48.7403 33.4686 48.7268 32.9714 48.4419 32.7151L47.773 33.4584C47.6139 33.3152 47.5927 33.0145 47.8263 32.8655L48.3641 33.7086ZM58.9623 28.0681C59.4461 27.8448 59.4481 27.1579 58.9656 26.9317L58.5412 27.8371C58.2538 27.7024 58.255 27.2932 58.5432 27.1601L58.9623 28.0681ZM33.4443 27.9847C33.1495 27.6899 33.4862 27.207 33.8647 27.3817L33.4456 28.2897C34.081 28.5829 34.6461 27.7724 34.1514 27.2776L33.4443 27.9847ZM46.8333 48.1859C46.8333 46.1368 47.9084 44.2381 49.6654 43.1838L49.1509 42.3263C47.0927 43.5613 45.8333 45.7856 45.8333 48.1859H46.8333ZM22.0399 27.1413C22.3205 27.2773 22.3048 27.6349 22.0979 27.7826L21.5166 26.9689C21.1531 27.2286 21.1499 27.821 21.6036 28.0411L22.0399 27.1413Z" fill="#272727"/>
<path d="M27.6471 71.8252L52.647 71.8252L40.7311 85.0046C40.5747 85.1775 40.3043 85.1807 40.144 85.0115L27.6471 71.8252Z" fill="white"/>
</svg>
